<svg width="60" height="51" viewBox="0 0 60 51" fill="none" xmlns="http://www.w3.org/2000/svg">
<path d="M19.071 16.8015C16.9548 15.1447 13.3935 14.3421 8.51613 14.3421H3.14839L4.72258 0.880203H20.6968V0H3.89677L2.11613 15.2223H8.33548C13.0065 15.2223 16.3613 15.9213 18.3226 17.397C20.2839 18.8467 21.3161 20.9954 21.3161 23.8173C21.3161 26.3802 20.4387 28.4254 18.7097 30.0046C17.0065 31.532 14.529 32.3345 11.2258 32.3345C8.95484 32.3345 6.8129 31.9462 4.90323 31.1178C2.96774 30.2893 1.54839 29.2279 0.619355 27.9594L0 28.6066C1.03226 29.9787 2.52903 31.1437 4.56774 31.998C6.60645 32.8782 8.82581 33.2665 11.2258 33.2665C14.7613 33.2665 17.4452 32.3863 19.329 30.6518C21.2645 28.8655 22.1935 26.6391 22.1935 23.8173C22.2968 20.7624 21.2387 18.4325 19.071 16.8015Z" fill="white"/>
<path d="M38.1161 7.09351H37.187V16.1285H27.9741V17.0605H37.187V26.0438H38.1161V17.0605H47.329V16.1285H38.1161V7.09351Z" fill="white"/>
<path d="M50.6321 0V0.906091H59.1224V33.1371H59.9998V0H50.6321Z" fill="white"/>
<path d="M15.8452 41.6802L13.2646 46.0812L10.813 41.6802H8.54199V49.3172H10.5549V44.7609L12.7484 48.5924H13.6775L15.9742 44.7609V49.3172H17.9872L17.9355 41.6802H15.8452Z" fill="white"/>
<path d="M21.6258 44.8386C21.7032 44.3726 21.9096 43.9584 22.2451 43.6477C22.6064 43.3371 22.9935 43.2076 23.5096 43.2076C23.9741 43.2076 24.4128 43.3629 24.7741 43.6477C25.1354 43.9325 25.3161 44.3208 25.3935 44.7868H21.6258V44.8386ZM25.5225 42.0685C24.929 41.7579 24.2322 41.6025 23.5096 41.6025C22.7612 41.6025 22.0645 41.7579 21.4193 42.1203C20.7999 42.431 20.3096 42.897 19.9741 43.5442C19.6128 44.1396 19.458 44.8127 19.458 45.5635C19.458 46.3142 19.6645 46.9873 19.9999 47.5827C20.3612 48.1782 20.8774 48.6442 21.5225 49.0066C22.1935 49.3173 22.9419 49.5244 23.7935 49.5244C25.1612 49.5244 26.2451 49.136 26.9419 48.3076L25.7548 47.0391C25.4709 47.2721 25.2128 47.4792 24.8774 47.5827C24.5677 47.7122 24.2064 47.7381 23.8193 47.7381C23.2257 47.7381 22.7612 47.6086 22.3741 47.3497C21.987 47.065 21.7548 46.7284 21.6258 46.2366H27.4064C27.458 45.8741 27.458 45.6929 27.458 45.6411C27.458 44.8645 27.3032 44.1396 26.9419 43.5442C26.6322 42.8452 26.1677 42.3792 25.5225 42.0685Z" fill="white"/>
<path d="M34.3483 47.505H31.1225C31.3547 47.2721 31.5096 46.8837 31.6386 46.3918C31.716 45.9259 31.7934 45.2528 31.845 44.502L31.8967 43.5182H34.3741V47.505H34.3483ZM36.5418 41.6802H29.8837L29.7547 44.3208C29.7031 45.3563 29.5999 46.1071 29.3934 46.6507C29.187 47.1944 28.8773 47.4792 28.4128 47.4792H28.1289V50.9482H30.245V49.3172H35.6128V50.9741H37.6515V47.505H36.5418V41.6802Z" fill="white"/>
<path d="M41.2386 46.2624V41.6802H39.0193V49.3172H41.058L44.7741 44.7868V49.3172H46.9677V41.6802H44.929L41.2386 46.2624Z" fill="white"/>
<path d="M53.497 46.9097C53.3679 47.2721 53.1873 47.5051 52.8776 47.6863C52.5937 47.8416 52.2582 47.9193 51.8453 47.9193C51.4582 47.9193 51.1486 47.8416 50.9421 47.6863C50.7099 47.531 50.6324 47.298 50.6324 47.0132C50.6324 46.4178 51.097 46.1071 52.0002 46.1071H53.5228V46.8838H53.497V46.9097ZM54.7615 42.431C54.1421 41.8873 53.2389 41.5508 52.0518 41.5508C51.4324 41.5508 50.8389 41.6284 50.2453 41.7838C49.6518 41.9391 49.1873 42.1721 48.7486 42.4569L49.5228 43.9843C49.8066 43.7513 50.1163 43.596 50.5034 43.4665C50.8905 43.3371 51.2776 43.2594 51.7163 43.2594C52.3099 43.2594 52.7486 43.3889 53.0066 43.6477C53.2905 43.8807 53.4453 44.2691 53.4453 44.7609H51.6647C50.555 44.7609 49.7292 44.968 49.1873 45.3564C48.6712 45.7447 48.4131 46.3142 48.4131 47.0132C48.4131 47.4533 48.5421 47.8416 48.7744 48.2041C49.0066 48.5665 49.3163 48.8254 49.755 49.0325C50.1937 49.2396 50.7099 49.3432 51.2776 49.3432C52.4131 49.3432 53.1615 48.9807 53.6002 48.2817V49.2396H55.6905V44.8645C55.7163 43.8548 55.3808 42.9746 54.7615 42.431Z" fill="white"/>
</svg>
