<svg width="50" height="7" viewBox="0 0 50 7" fill="none" xmlns="http://www.w3.org/2000/svg">
<path d="M3.232 6.024C2.70933 6.024 2.232 5.89867 1.8 5.648C1.37333 5.39733 1.03467 5.056 0.784 4.624C0.538667 4.192 0.416 3.71733 0.416 3.2C0.416 2.68267 0.538667 2.208 0.784 1.776C1.03467 1.344 1.376 1.00267 1.808 0.752C2.24 0.501333 2.72 0.376 3.248 0.376C3.776 0.376 4.25333 0.498667 4.68 0.744C5.112 0.989333 5.45067 1.328 5.696 1.76C5.94133 2.18667 6.064 2.66133 6.064 3.184C6.064 3.70667 5.93867 4.18667 5.688 4.624C5.43733 5.056 5.096 5.39733 4.664 5.648C4.232 5.89867 3.75467 6.024 3.232 6.024ZM3.232 5.728C3.70133 5.728 4.128 5.616 4.512 5.392C4.896 5.16267 5.2 4.856 5.424 4.472C5.648 4.08267 5.76 3.65333 5.76 3.184C5.76 2.71467 5.65067 2.29067 5.432 1.912C5.21333 1.528 4.912 1.22667 4.528 1.008C4.14933 0.784 3.72267 0.672 3.248 0.672C2.77333 0.672 2.34133 0.784 1.952 1.008C1.568 1.232 1.264 1.53867 1.04 1.928C0.821333 2.312 0.712 2.736 0.712 3.2C0.712 3.664 0.821333 4.09067 1.04 4.48C1.264 4.864 1.568 5.168 1.952 5.392C2.336 5.616 2.76267 5.728 3.232 5.728ZM3.304 4.864C2.98933 4.864 2.704 4.79467 2.448 4.656C2.19733 4.512 2 4.31467 1.856 4.064C1.712 3.808 1.64 3.52 1.64 3.2C1.64 2.88 1.712 2.59467 1.856 2.344C2 2.088 2.19733 1.89067 2.448 1.752C2.704 1.608 2.98933 1.536 3.304 1.536C3.576 1.536 3.82133 1.592 4.04 1.704C4.264 1.81067 4.44267 1.96 4.576 2.152L4.232 2.408C4.12 2.25333 3.984 2.13867 3.824 2.064C3.664 1.98933 3.488 1.952 3.296 1.952C2.94933 1.952 2.66133 2.06667 2.432 2.296C2.208 2.52533 2.096 2.82667 2.096 3.2C2.096 3.57333 2.208 3.87467 2.432 4.104C2.66133 4.33333 2.94933 4.448 3.296 4.448C3.488 4.448 3.664 4.41067 3.824 4.336C3.984 4.26133 4.12 4.14667 4.232 3.992L4.576 4.24C4.44267 4.43733 4.264 4.592 4.04 4.704C3.82133 4.81067 3.576 4.864 3.304 4.864ZM10.4505 2.696C11.2612 2.696 11.8505 2.84267 12.2185 3.136C12.5918 3.424 12.7785 3.82933 12.7785 4.352C12.7785 4.67733 12.7012 4.968 12.5465 5.224C12.3972 5.48 12.1705 5.68267 11.8665 5.832C11.5625 5.976 11.1892 6.048 10.7465 6.048C10.3465 6.048 9.96517 5.984 9.6025 5.856C9.24517 5.72267 8.95717 5.54667 8.7385 5.328L9.0185 4.872C9.20517 5.064 9.4505 5.22133 9.7545 5.344C10.0585 5.46133 10.3865 5.52 10.7385 5.52C11.2025 5.52 11.5598 5.416 11.8105 5.208C12.0665 5 12.1945 4.72267 12.1945 4.376C12.1945 3.992 12.0505 3.70133 11.7625 3.504C11.4798 3.30667 10.9998 3.208 10.3225 3.208H9.1305L9.4185 0.4H12.4825V0.912H9.9225L9.7305 2.696H10.4505ZM17.1337 3.44H15.6458V4.896H15.1418V3.44H13.6538V2.968H15.1418V1.504H15.6458V2.968H17.1337V3.44ZM19.5305 0.4V6H18.9545V0.912H17.6345V0.4H19.5305ZM26.4931 1.76C27.0211 1.76 27.4345 1.912 27.7331 2.216C28.0371 2.52 28.1891 2.968 28.1891 3.56V6H27.6211V3.616C27.6211 3.17867 27.5145 2.84533 27.3011 2.616C27.0931 2.38667 26.7971 2.272 26.4131 2.272C25.9758 2.272 25.6318 2.408 25.3811 2.68C25.1305 2.94667 25.0051 3.31733 25.0051 3.792V6H24.4371V3.616C24.4371 3.17867 24.3305 2.84533 24.1171 2.616C23.9091 2.38667 23.6105 2.272 23.2211 2.272C22.7891 2.272 22.4451 2.408 22.1891 2.68C21.9385 2.94667 21.8131 3.31733 21.8131 3.792V6H21.2451V1.792H21.7891V2.56C21.9385 2.304 22.1465 2.10667 22.4131 1.968C22.6798 1.82933 22.9865 1.76 23.3331 1.76C23.6851 1.76 23.9891 1.83467 24.2451 1.984C24.5065 2.13333 24.7011 2.35467 24.8291 2.648C24.9838 2.37067 25.2051 2.15467 25.4931 2C25.7865 1.84 26.1198 1.76 26.4931 1.76ZM31.2015 1.76C31.7508 1.76 32.1722 1.89867 32.4655 2.176C32.7588 2.448 32.9055 2.85333 32.9055 3.392V6H32.3615V5.344C32.2335 5.56267 32.0442 5.73333 31.7935 5.856C31.5482 5.97867 31.2548 6.04 30.9135 6.04C30.4442 6.04 30.0708 5.928 29.7935 5.704C29.5162 5.48 29.3775 5.184 29.3775 4.816C29.3775 4.45867 29.5055 4.17067 29.7615 3.952C30.0228 3.73333 30.4362 3.624 31.0015 3.624H32.3375V3.368C32.3375 3.00533 32.2362 2.73067 32.0335 2.544C31.8308 2.352 31.5348 2.256 31.1455 2.256C30.8788 2.256 30.6228 2.30133 30.3775 2.392C30.1322 2.47733 29.9215 2.59733 29.7455 2.752L29.4895 2.328C29.7028 2.14667 29.9588 2.008 30.2575 1.912C30.5562 1.81067 30.8708 1.76 31.2015 1.76ZM31.0015 5.592C31.3215 5.592 31.5962 5.52 31.8255 5.376C32.0548 5.22667 32.2255 5.01333 32.3375 4.736V4.048H31.0175C30.2975 4.048 29.9375 4.29867 29.9375 4.8C29.9375 5.04533 30.0308 5.24 30.2175 5.384C30.4042 5.52267 30.6655 5.592 31.0015 5.592ZM34.9923 2.616C35.1256 2.33333 35.3229 2.12 35.5843 1.976C35.8509 1.832 36.1789 1.76 36.5683 1.76V2.312L36.4323 2.304C35.9896 2.304 35.6429 2.44 35.3923 2.712C35.1416 2.984 35.0163 3.36533 35.0163 3.856V6H34.4483V1.792H34.9923V2.616ZM39.1567 3.888L38.1647 4.8V6H37.5967V0.0639997H38.1647V4.088L40.6767 1.792H41.3807L39.5807 3.512L41.5487 6H40.8527L39.1567 3.888ZM45.8935 4.072H42.3735C42.4055 4.50933 42.5735 4.864 42.8775 5.136C43.1815 5.40267 43.5655 5.536 44.0295 5.536C44.2908 5.536 44.5308 5.49067 44.7495 5.4C44.9682 5.304 45.1575 5.16533 45.3175 4.984L45.6375 5.352C45.4508 5.576 45.2162 5.74667 44.9335 5.864C44.6562 5.98133 44.3495 6.04 44.0135 6.04C43.5815 6.04 43.1975 5.94933 42.8615 5.768C42.5308 5.58133 42.2722 5.32533 42.0855 5C41.8988 4.67467 41.8055 4.30667 41.8055 3.896C41.8055 3.48533 41.8935 3.11733 42.0695 2.792C42.2508 2.46667 42.4962 2.21333 42.8055 2.032C43.1202 1.85067 43.4722 1.76 43.8615 1.76C44.2508 1.76 44.6002 1.85067 44.9095 2.032C45.2188 2.21333 45.4615 2.46667 45.6375 2.792C45.8135 3.112 45.9015 3.48 45.9015 3.896L45.8935 4.072ZM43.8615 2.248C43.4562 2.248 43.1148 2.37867 42.8375 2.64C42.5655 2.896 42.4108 3.232 42.3735 3.648H45.3575C45.3202 3.232 45.1628 2.896 44.8855 2.64C44.6135 2.37867 44.2722 2.248 43.8615 2.248ZM49.2736 5.744C49.167 5.84 49.0336 5.91467 48.8736 5.968C48.719 6.016 48.5563 6.04 48.3856 6.04C47.991 6.04 47.687 5.93333 47.4736 5.72C47.2603 5.50667 47.1536 5.20533 47.1536 4.816V2.272H46.4016V1.792H47.1536V0.872H47.7216V1.792H49.0016V2.272H47.7216V4.784C47.7216 5.03467 47.783 5.22667 47.9056 5.36C48.0336 5.488 48.215 5.552 48.4496 5.552C48.567 5.552 48.679 5.53333 48.7856 5.496C48.8976 5.45867 48.9936 5.40533 49.0736 5.336L49.2736 5.744Z" fill="#8B8B8B"/>
</svg>
