<svg width="60" height="50" viewBox="0 0 60 50" fill="none" xmlns="http://www.w3.org/2000/svg">
<path d="M19.071 16.4721C16.9548 14.8477 13.3935 14.0609 8.51613 14.0609H3.14839L4.72258 0.862944H20.6968V0H3.89677L2.11613 14.9239H8.33548C13.0065 14.9239 16.3613 15.6091 18.3226 17.0558C20.2839 18.4772 21.3161 20.5838 21.3161 23.3503C21.3161 25.8629 20.4387 27.868 18.7097 29.4162C17.0065 30.9137 14.529 31.7005 11.2258 31.7005C8.95484 31.7005 6.8129 31.3198 4.90323 30.5076C2.96774 29.6954 1.54839 28.6548 0.619355 27.4112L0 28.0457C1.03226 29.3909 2.52903 30.533 4.56774 31.3706C6.60645 32.2335 8.82581 32.6142 11.2258 32.6142C14.7613 32.6142 17.4452 31.7513 19.329 30.0508C21.2645 28.2995 22.1935 26.1168 22.1935 23.3503C22.2968 20.3553 21.2387 18.0711 19.071 16.4721Z" fill="black"/>
<path d="M38.1161 6.95435H37.187V15.8122H27.9741V16.7259H37.187V25.533H38.1161V16.7259H47.329V15.8122H38.1161V6.95435Z" fill="black"/>
<path d="M50.6323 0V0.888325H59.1227V32.4873H60.0001V0H50.6323Z" fill="black"/>
<path d="M15.8452 40.8628L13.2646 45.1775L10.813 40.8628H8.54199V48.3501H10.5549V43.8831L12.7484 47.6394H13.6775L15.9743 43.8831V48.3501H17.9872L17.9355 40.8628H15.8452Z" fill="black"/>
<path d="M21.6258 43.9595C21.7032 43.5026 21.9096 43.0965 22.2451 42.7919C22.6064 42.4874 22.9935 42.3605 23.5096 42.3605C23.9741 42.3605 24.4128 42.5128 24.7741 42.7919C25.1354 43.0711 25.3161 43.4518 25.3935 43.9087H21.6258V43.9595ZM25.5225 41.2437C24.929 40.9392 24.2322 40.7869 23.5096 40.7869C22.7612 40.7869 22.0645 40.9391 21.4193 41.2945C20.7999 41.599 20.3096 42.0559 19.9741 42.6904C19.6128 43.2742 19.458 43.9341 19.458 44.6701C19.458 45.4062 19.6645 46.0661 19.9999 46.6498C20.3612 47.2336 20.8774 47.6904 21.5225 48.0457C22.1935 48.3503 22.9419 48.5534 23.7935 48.5534C25.1612 48.5534 26.2451 48.1727 26.9419 47.3605L25.7548 46.1168C25.4709 46.3452 25.2128 46.5483 24.8774 46.6498C24.5677 46.7767 24.2064 46.8021 23.8193 46.8021C23.2258 46.8021 22.7612 46.6752 22.3741 46.4214C21.987 46.1422 21.7548 45.8122 21.6258 45.33H27.4064C27.458 44.9747 27.458 44.797 27.458 44.7463C27.458 43.9848 27.3032 43.2742 26.9419 42.6904C26.6322 42.0051 26.1677 41.5483 25.5225 41.2437Z" fill="black"/>
<path d="M34.3485 46.5735H31.1227C31.355 46.345 31.5098 45.9643 31.6388 45.4821C31.7162 45.0252 31.7937 44.3653 31.8453 43.6293L31.8969 42.6648H34.3743V46.5735H34.3485ZM36.5421 40.8628H29.884L29.755 43.4516C29.7033 44.4669 29.6001 45.2029 29.3937 45.7359C29.1872 46.2689 28.8775 46.5481 28.413 46.5481H28.1292V49.9491H30.2453V48.3501H35.613V49.9745H37.6517V46.5735H36.5421V40.8628Z" fill="black"/>
<path d="M41.2386 45.3552V40.8628H39.0193V48.3501H41.058L44.7741 43.9085V48.3501H46.9677V40.8628H44.929L41.2386 45.3552Z" fill="black"/>
<path d="M53.4967 45.9899C53.3677 46.3452 53.187 46.5736 52.8774 46.7513C52.5935 46.9036 52.258 46.9797 51.8451 46.9797C51.458 46.9797 51.1483 46.9036 50.9419 46.7513C50.7096 46.599 50.6322 46.3706 50.6322 46.0914C50.6322 45.5077 51.0967 45.2031 51.9999 45.2031H53.5225V45.9645H53.4967V45.9899ZM54.7612 41.599C54.1419 41.066 53.2386 40.7361 52.0515 40.7361C51.4322 40.7361 50.8386 40.8122 50.2451 40.9645C49.6515 41.1168 49.187 41.3452 48.7483 41.6244L49.5225 43.1219C49.8064 42.8934 50.1161 42.7412 50.5032 42.6143C50.8903 42.4874 51.2774 42.4112 51.7161 42.4112C52.3096 42.4112 52.7483 42.5381 53.0064 42.7919C53.2903 43.0203 53.4451 43.4011 53.4451 43.8833H51.6645C50.5548 43.8833 49.729 44.0863 49.187 44.467C48.6709 44.8478 48.4128 45.4061 48.4128 46.0914C48.4128 46.5229 48.5419 46.9036 48.7741 47.2589C49.0064 47.6143 49.3161 47.8681 49.7548 48.0711C50.1935 48.2742 50.7096 48.3757 51.2774 48.3757C52.4128 48.3757 53.1612 48.0203 53.5999 47.3351V48.2742H55.6903V43.9848C55.7161 42.995 55.3806 42.132 54.7612 41.599Z" fill="black"/>
</svg>
