<svg width="60" height="50" viewBox="0 0 60 50" fill="none" xmlns="http://www.w3.org/2000/svg"><path d="M19.071 16.472c-2.116-1.624-5.678-2.411-10.555-2.411H3.148L4.723.863h15.974V0h-16.8l-1.78 14.924h6.218c4.671 0 8.026.685 9.988 2.132 1.96 1.421 2.993 3.528 2.993 6.294 0 2.513-.877 4.518-2.606 6.066-1.704 1.498-4.181 2.285-7.484 2.285-2.271 0-4.413-.381-6.323-1.193-1.935-.813-3.355-1.853-4.284-3.097L0 28.046c1.032 1.345 2.529 2.487 4.568 3.325 2.038.863 4.258 1.243 6.658 1.243 3.535 0 6.22-.863 8.103-2.563 1.936-1.752 2.864-3.934 2.864-6.7.104-2.996-.954-5.28-3.122-6.879zM38.116 6.954h-.929v8.858h-9.213v.914h9.213v8.807h.93v-8.807h9.212v-.914h-9.213V6.954zM50.632 0v.888h8.49v31.6H60V0h-9.368zM15.845 40.863l-2.58 4.315-2.452-4.315H8.542v7.487h2.013v-4.467l2.193 3.756h.93l2.296-3.756v4.467h2.013l-.051-7.487h-2.09zM21.626 43.96c.077-.457.284-.864.62-1.168.36-.305.748-.431 1.264-.431.464 0 .903.152 1.264.43.361.28.542.66.62 1.118h-3.768v.05zm3.896-2.716c-.593-.305-1.29-.457-2.012-.457-.749 0-1.446.152-2.09.508-.62.304-1.11.76-1.446 1.395-.361.584-.516 1.244-.516 1.98s.207 1.396.542 1.98c.361.584.877 1.04 1.523 1.396.67.304 1.419.507 2.27.507 1.368 0 2.452-.38 3.149-1.192l-1.187-1.244c-.284.228-.542.431-.878.533-.31.127-.67.152-1.058.152-.593 0-1.058-.127-1.445-.38-.387-.28-.62-.61-.748-1.092h5.78c.052-.355.052-.533.052-.584 0-.761-.155-1.472-.516-2.056a2.8 2.8 0 0 0-1.42-1.446zM34.349 46.574h-3.226c.232-.229.387-.61.516-1.092.077-.457.155-1.117.206-1.853l.052-.964h2.477v3.909h-.026zm2.193-5.711h-6.658l-.129 2.589c-.052 1.015-.155 1.75-.361 2.284-.207.533-.516.812-.981.812h-.284v3.401h2.116V48.35h5.368v1.624h2.039v-3.4h-1.11v-5.711zM41.239 45.355v-4.492h-2.22v7.487h2.039l3.716-4.442v4.442h2.194v-7.487h-2.039l-3.69 4.492zM53.497 45.99c-.13.355-.31.584-.62.761-.284.153-.619.229-1.032.229-.387 0-.697-.076-.903-.229-.232-.152-.31-.38-.31-.66 0-.583.465-.888 1.368-.888h1.523v.761h-.026v.026zm1.264-4.391c-.62-.533-1.522-.863-2.71-.863a7.19 7.19 0 0 0-1.806.229 5.02 5.02 0 0 0-1.497.66l.775 1.497c.283-.229.593-.38.98-.508a3.795 3.795 0 0 1 1.213-.203c.594 0 1.032.127 1.29.38.284.23.44.61.44 1.092h-1.782c-1.11 0-1.935.203-2.477.584-.516.38-.774.94-.774 1.624 0 .432.129.813.361 1.168.232.355.542.61.98.812.44.203.956.305 1.523.305 1.136 0 1.884-.356 2.323-1.04v.938h2.09v-4.29c.026-.989-.31-1.852-.929-2.385z" fill="#000"/></svg>