<svg width="20" height="20" viewBox="0 0 20 20" fill="none" xmlns="http://www.w3.org/2000/svg"><path d="M2.93 20h14.14A2.933 2.933 0 0 0 20 17.07V2.93A2.933 2.933 0 0 0 17.07 0H2.93A2.933 2.933 0 0 0 0 2.93v14.14A2.933 2.933 0 0 0 2.93 20zM1.172 2.93c0-.97.788-1.758 1.758-1.758h14.14c.97 0 1.758.788 1.758 1.758v14.14a1.76 1.76 0 0 1-1.758 1.758H2.93a1.76 1.76 0 0 1-1.758-1.758V2.93z" fill="#FBFBFB"/><path d="M10 15.273A5.28 5.28 0 0 0 15.273 10 5.28 5.28 0 0 0 10 4.727 5.28 5.28 0 0 0 4.727 10 5.28 5.28 0 0 0 10 15.273zm0-9.375A4.106 4.106 0 0 1 14.102 10 4.106 4.106 0 0 1 10 14.102 4.106 4.106 0 0 1 5.898 10 4.106 4.106 0 0 1 10 5.898zM15.86 5.898a1.76 1.76 0 0 0 1.757-1.757 1.76 1.76 0 0 0-1.758-1.758 1.76 1.76 0 0 0-1.757 1.758c0 .969.788 1.757 1.757 1.757zm0-2.343a.587.587 0 1 1-.002 1.173.587.587 0 0 1 .001-1.173z" fill="#FBFBFB"/></svg>