<svg width="60" height="51" viewBox="0 0 60 51" fill="none" xmlns="http://www.w3.org/2000/svg"><path d="M19.071 16.802c-2.116-1.657-5.678-2.46-10.555-2.46H3.148L4.723.88h15.974V0h-16.8l-1.78 15.222h6.218c4.671 0 8.026.7 9.988 2.175 1.96 1.45 2.993 3.598 2.993 6.42 0 2.563-.877 4.608-2.606 6.188-1.704 1.527-4.181 2.33-7.484 2.33-2.271 0-4.413-.389-6.323-1.217-1.935-.829-3.355-1.89-4.284-3.159L0 28.607c1.032 1.372 2.529 2.537 4.568 3.391 2.038.88 4.258 1.268 6.658 1.268 3.535 0 6.22-.88 8.103-2.614 1.936-1.787 2.864-4.013 2.864-6.835.104-3.055-.954-5.384-3.122-7.015zM38.116 7.094h-.929v9.034h-9.213v.933h9.213v8.983h.93V17.06h9.212v-.933h-9.213V7.094zM50.632 0v.906h8.49v32.231H60V0h-9.368zM15.845 41.68l-2.58 4.401-2.452-4.4H8.542v7.636h2.013v-4.556l2.193 3.831h.93l2.296-3.831v4.556h2.013l-.051-7.637h-2.09zM21.626 44.839c.077-.466.284-.88.62-1.191.36-.31.748-.44 1.264-.44.464 0 .903.155 1.264.44.361.284.542.673.62 1.139h-3.768v.052zm3.896-2.77c-.593-.311-1.29-.467-2.012-.467-.749 0-1.446.156-2.09.518-.62.311-1.11.777-1.446 1.424-.361.596-.516 1.269-.516 2.02 0 .75.207 1.423.542 2.019.361.595.877 1.061 1.523 1.424a5.33 5.33 0 0 0 2.27.517c1.368 0 2.452-.388 3.149-1.216l-1.187-1.269c-.284.233-.542.44-.878.544-.31.13-.67.155-1.058.155-.593 0-1.058-.13-1.445-.388a1.88 1.88 0 0 1-.748-1.113h5.78c.052-.363.052-.544.052-.596 0-.776-.155-1.501-.516-2.097-.31-.699-.774-1.165-1.42-1.475zM34.348 47.505h-3.226c.233-.233.388-.621.517-1.113.077-.466.154-1.14.206-1.89l.052-.984h2.477v3.987h-.026zm2.194-5.825h-6.658l-.13 2.64c-.05 1.036-.154 1.787-.36 2.33-.207.544-.517.83-.981.83h-.284v3.468h2.116v-1.63h5.368v1.656h2.038v-3.469h-1.11V41.68zM41.239 46.262V41.68h-2.22v7.637h2.039l3.716-4.53v4.53h2.194V41.68h-2.039l-3.69 4.582zM53.497 46.91c-.13.362-.31.595-.62.776-.283.156-.619.233-1.032.233-.387 0-.696-.077-.903-.233-.232-.155-.31-.388-.31-.673 0-.595.465-.906 1.368-.906h1.523v.777h-.026v.026zm1.264-4.479c-.619-.544-1.522-.88-2.71-.88-.619 0-1.212.077-1.806.233a4.97 4.97 0 0 0-1.496.673l.774 1.527c.284-.233.593-.388.98-.517.388-.13.775-.208 1.213-.208.594 0 1.033.13 1.29.389.285.233.44.621.44 1.113h-1.781c-1.11 0-1.936.207-2.478.595-.516.389-.774.958-.774 1.657 0 .44.13.829.361 1.191.233.362.542.621.981.828.439.208.955.311 1.523.311 1.135 0 1.883-.362 2.322-1.061v.958h2.09v-4.376c.026-1.01-.31-1.89-.928-2.433z" fill="#fff"/></svg>