<svg width="50" height="7" viewBox="0 0 50 7" fill="none" xmlns="http://www.w3.org/2000/svg"><path d="M3.232 6.024c-.523 0-1-.125-1.432-.376A2.793 2.793 0 0 1 .784 4.624 2.834 2.834 0 0 1 .416 3.2c0-.517.123-.992.368-1.424.25-.432.592-.773 1.024-1.024.432-.25.912-.376 1.44-.376A2.82 2.82 0 0 1 4.68.744c.432.245.77.584 1.016 1.016.245.427.368.901.368 1.424 0 .523-.125 1.003-.376 1.44a2.802 2.802 0 0 1-2.456 1.4zm0-.296c.47 0 .896-.112 1.28-.336.384-.23.688-.536.912-.92.224-.39.336-.819.336-1.288 0-.47-.11-.893-.328-1.272a2.374 2.374 0 0 0-.904-.904 2.466 2.466 0 0 0-1.28-.336c-.475 0-.907.112-1.296.336-.384.224-.688.53-.912.92A2.525 2.525 0 0 0 .712 3.2c0 .464.11.89.328 1.28a2.493 2.493 0 0 0 2.192 1.248zm.072-.864c-.315 0-.6-.07-.856-.208a1.577 1.577 0 0 1-.592-.592A1.731 1.731 0 0 1 1.64 3.2c0-.32.072-.605.216-.856.144-.256.341-.453.592-.592.256-.144.541-.216.856-.216.272 0 .517.056.736.168.224.107.403.256.536.448l-.344.256a1.048 1.048 0 0 0-.408-.344 1.233 1.233 0 0 0-.528-.112c-.347 0-.635.115-.864.344-.224.23-.336.53-.336.904 0 .373.112.675.336.904.23.23.517.344.864.344.192 0 .368-.037.528-.112.16-.075.296-.19.408-.344l.344.248a1.376 1.376 0 0 1-.536.464c-.219.107-.464.16-.736.16zm7.146-2.168c.811 0 1.4.147 1.769.44.373.288.56.693.56 1.216 0 .325-.078.616-.232.872-.15.256-.377.459-.68.608-.305.144-.678.216-1.12.216-.4 0-.782-.064-1.145-.192a2.375 2.375 0 0 1-.864-.528l.28-.456c.187.192.432.35.736.472.305.117.633.176.985.176.463 0 .82-.104 1.071-.312.256-.208.384-.485.384-.832 0-.384-.144-.675-.432-.872-.282-.197-.762-.296-1.44-.296H9.131L9.418.4h3.065v.512h-2.56L9.73 2.696h.72zm6.684.744h-1.488v1.456h-.504V3.44h-1.488v-.472h1.488V1.504h.504v1.464h1.488v.472zM19.53.4V6h-.576V.912h-1.32V.4h1.896zm6.963 1.36c.528 0 .942.152 1.24.456.304.304.456.752.456 1.344V6h-.568V3.616c0-.437-.106-.77-.32-1-.208-.23-.504-.344-.888-.344-.437 0-.781.136-1.032.408-.25.267-.376.637-.376 1.112V6h-.568V3.616c0-.437-.107-.77-.32-1-.208-.23-.507-.344-.896-.344-.432 0-.776.136-1.032.408-.25.267-.376.637-.376 1.112V6h-.568V1.792h.544v.768c.15-.256.357-.453.624-.592.267-.139.573-.208.92-.208.352 0 .656.075.912.224.261.15.456.37.584.664A1.62 1.62 0 0 1 25.493 2c.294-.16.627-.24 1-.24zm4.709 0c.549 0 .97.139 1.263.416.294.272.44.677.44 1.216V6h-.544v-.656c-.127.219-.317.39-.567.512a1.948 1.948 0 0 1-.88.184c-.47 0-.843-.112-1.12-.336a1.085 1.085 0 0 1-.416-.888c0-.357.128-.645.384-.864.26-.219.674-.328 1.24-.328h1.335v-.256c0-.363-.1-.637-.304-.824-.202-.192-.498-.288-.888-.288-.266 0-.522.045-.767.136a1.881 1.881 0 0 0-.633.36l-.256-.424c.214-.181.47-.32.768-.416.3-.101.614-.152.944-.152zm-.2 3.832c.32 0 .594-.072.824-.216.229-.15.4-.363.511-.64v-.688h-1.32c-.72 0-1.08.25-1.08.752 0 .245.094.44.28.584.187.139.449.208.785.208zm3.99-2.976c.134-.283.33-.496.592-.64.267-.144.595-.216.984-.216v.552l-.136-.008c-.442 0-.79.136-1.04.408-.25.272-.376.653-.376 1.144V6h-.568V1.792h.544v.824zm4.165 1.272l-.992.912V6h-.568V.064h.568v4.024l2.512-2.296h.704l-1.8 1.72L41.549 6h-.696l-1.696-2.112zm6.737.184h-3.52c.032.437.2.792.503 1.064.304.267.688.4 1.152.4.262 0 .502-.045.72-.136.22-.096.408-.235.569-.416l.32.368a1.796 1.796 0 0 1-.704.512 2.338 2.338 0 0 1-.92.176c-.433 0-.817-.09-1.153-.272A2.026 2.026 0 0 1 42.087 5a2.178 2.178 0 0 1-.28-1.104c0-.41.088-.779.264-1.104.18-.325.426-.579.736-.76a2.077 2.077 0 0 1 1.056-.272c.389 0 .738.09 1.047.272.31.181.553.435.729.76.175.32.264.688.264 1.104l-.008.176zm-2.032-1.824c-.406 0-.747.13-1.025.392-.272.256-.426.592-.464 1.008h2.985c-.038-.416-.195-.752-.472-1.008-.273-.261-.614-.392-1.025-.392zm5.412 3.496c-.107.096-.24.17-.4.224a1.637 1.637 0 0 1-.488.072c-.395 0-.699-.107-.912-.32-.214-.213-.32-.515-.32-.904V2.272h-.752v-.48h.752v-.92h.568v.92h1.28v.48h-1.28v2.512c0 .25.061.443.184.576.128.128.309.192.544.192.117 0 .229-.019.336-.056a.839.839 0 0 0 .288-.16l.2.408z" fill="#8B8B8B"/></svg>